<svg width="24" height="24" viewBox="0 0 24 24" fill="none" xmlns="http://www.w3.org/2000/svg">
<path fill-rule="evenodd" clip-rule="evenodd" d="M9.39476 1.25L9.50001 1.25001H12.4H12.4339C14.0854 1.25001 15.3708 1.25 16.4019 1.33425C17.4488 1.41978 18.2994 1.59588 19.0644 1.98572C20.3345 2.63286 21.3672 3.66548 22.0143 4.93557C22.4041 5.70066 22.5802 6.55125 22.6658 7.59815C22.75 8.62919 22.75 9.91451 22.75 11.5659V11.5659V11.566V11.566V11.566V11.6V15.1716V15.1952V15.1952V15.1953V15.1953V15.1953C22.75 15.5101 22.75 15.6976 22.7401 15.8805C22.6567 17.4161 22.0515 18.8773 21.0246 20.022C20.9023 20.1584 20.7696 20.2911 20.547 20.5137L20.5303 20.5303L20.5137 20.547C20.2911 20.7696 20.1584 20.9023 20.022 21.0246C18.8773 22.0515 17.4161 22.6567 15.8805 22.7401C15.6976 22.75 15.5101 22.75 15.1953 22.75H15.1953H15.1953H15.1952H15.1952H15.1716H9.50001L9.39474 22.75C8.10087 22.7501 7.33595 22.7502 6.68315 22.6203C4.00549 22.0877 1.91233 19.9945 1.37971 17.3169C1.24986 16.6641 1.24991 15.8991 1.25 14.6053L1.25001 14.5V14C1.25001 13.5858 1.5858 13.25 2.00001 13.25C2.41422 13.25 2.75001 13.5858 2.75001 14V14.5C2.75001 15.9299 2.75364 16.5354 2.85089 17.0242C3.26515 19.1069 4.89316 20.7349 6.97579 21.1491C7.46467 21.2464 8.0701 21.25 9.50001 21.25H15.1716C15.199 21.25 15.2251 21.25 15.25 21.25V19V18.9747C15.25 18.5303 15.25 18.1592 15.2708 17.8546C15.2924 17.5375 15.3391 17.238 15.4593 16.9476C15.7384 16.2738 16.2738 15.7384 16.9476 15.4593C17.238 15.339 17.5375 15.2924 17.8546 15.2707C18.1593 15.25 18.5303 15.25 18.9747 15.25H18.9748H19H19.5C19.9142 15.25 20.25 15.5858 20.25 16C20.25 16.4142 19.9142 16.75 19.5 16.75H19C18.5238 16.75 18.2042 16.7504 17.9568 16.7673C17.716 16.7837 17.5988 16.8132 17.5217 16.8451C17.2154 16.972 16.972 17.2153 16.8452 17.5216C16.8132 17.5988 16.7837 17.716 16.7673 17.9567C16.7504 18.2042 16.75 18.5238 16.75 19V21.1026C17.5892 20.8995 18.3703 20.4912 19.0204 19.908C19.1229 19.8161 19.2255 19.7139 19.4697 19.4697C19.7139 19.2255 19.8161 19.1229 19.908 19.0204C20.7068 18.13 21.1775 16.9936 21.2423 15.7992C21.2498 15.6618 21.25 15.5169 21.25 15.1716V11.6C21.25 9.90748 21.2494 8.68318 21.1708 7.7203C21.0928 6.76616 20.9419 6.13494 20.6778 5.61656C20.1745 4.62871 19.3713 3.82556 18.3835 3.32223C17.8651 3.0581 17.2339 2.90722 16.2797 2.82926C15.3168 2.75059 14.0925 2.75001 12.4 2.75001H9.50001C8.0701 2.75001 7.46467 2.75364 6.97579 2.85089C4.89316 3.26515 3.26515 4.89316 2.85089 6.97579C2.75364 7.46467 2.75001 8.0701 2.75001 9.50001V10C2.75001 10.4142 2.41422 10.75 2.00001 10.75C1.5858 10.75 1.25001 10.4142 1.25001 10V9.50001L1.25 9.39476C1.24991 8.10088 1.24986 7.33595 1.37971 6.68315C1.91233 4.00549 4.00549 1.91233 6.68315 1.37971C7.33595 1.24986 8.10088 1.24991 9.39476 1.25ZM6.25001 7.00001C6.25001 6.5858 6.5858 6.25001 7.00001 6.25001H15C15.4142 6.25001 15.75 6.5858 15.75 7.00001C15.75 7.41422 15.4142 7.75001 15 7.75001H7.00001C6.5858 7.75001 6.25001 7.41422 6.25001 7.00001ZM7.00001 10.25C6.5858 10.25 6.25001 10.5858 6.25001 11C6.25001 11.4142 6.5858 11.75 7.00001 11.75H13C13.4142 11.75 13.75 11.4142 13.75 11C13.75 10.5858 13.4142 10.25 13 10.25H7.00001ZM6.25001 15C6.25001 14.5858 6.5858 14.25 7.00001 14.25H9.00001C9.41422 14.25 9.75001 14.5858 9.75001 15C9.75001 15.4142 9.41422 15.75 9.00001 15.75H7.00001C6.5858 15.75 6.25001 15.4142 6.25001 15Z" fill="#716B76"/>
</svg>
