<svg width="47" height="47" viewBox="0 0 47 47" xmlns="http://www.w3.org/2000/svg">
<path d="M44.4354 8.73681C43.3188 7.83251 41.9118 7.36573 40.4768 7.42345C39.0418 7.48124 37.6767 8.05965 36.6363 9.05076C35.5959 10.0419 34.9513 11.378 34.8226 12.8099C34.7823 13.2587 34.7936 13.7073 34.8541 14.1475C35.0854 15.8305 35.1033 17.7315 33.9479 18.977V18.977C32.0672 21.0042 28.6934 20.1986 27.9316 17.5404L26.9894 14.2528C26.4732 12.4519 27.4413 10.5852 28.4084 8.98072V8.98072C28.9647 8.05752 29.2602 7.00039 29.2633 5.92222C29.2634 5.13787 29.1078 4.36133 28.8055 3.63767C28.5034 2.91401 28.0605 2.25767 27.5029 1.70675C26.9451 1.15582 26.2836 0.72129 25.5568 0.428392C24.8299 0.135494 24.0521 -0.00994742 23.2687 0.000528192C21.9536 0.0206256 20.6827 0.478248 19.6562 1.30127C18.6296 2.12428 17.9059 3.26587 17.5991 4.54608C17.2922 5.82631 17.4198 7.17235 17.9615 8.37202V8.37202C18.8999 10.4497 20.1414 12.7407 19.5129 14.9321L18.7667 17.5343C18.0049 20.1905 14.6304 20.9905 12.7574 18.9589V18.9589C11.6133 17.7179 11.6318 15.8311 11.8635 14.1591C11.9356 13.6388 11.9386 13.1069 11.8692 12.5774C11.6723 11.0754 10.9072 9.70642 9.73155 8.75262C8.59763 7.80002 7.14858 7.30691 5.66963 7.3704C4.19069 7.43396 2.78912 8.04945 1.74091 9.09575C0.692704 10.142 0.0738396 11.5433 0.00619317 13.0236C-0.0614533 14.5039 0.427023 15.9558 1.37542 17.0936V17.0936C2.86433 18.9281 4.77946 20.8547 4.77946 23.2173V42.2983C4.77946 42.87 4.89208 43.4361 5.11088 43.9642C5.32967 44.4923 5.65035 44.972 6.05455 45.3759C6.45877 45.7798 6.93858 46.0999 7.46648 46.3179C7.99446 46.536 8.56011 46.6477 9.1313 46.6467H37.5641C38.7162 46.6467 39.8211 46.1885 40.6357 45.3731C41.4503 44.5576 41.908 43.4516 41.908 42.2983V22.507C41.908 20.5578 43.4305 18.9723 44.834 17.6196V17.6196C45.6437 16.8392 46.2145 15.8442 46.4796 14.7509C46.7448 13.6576 46.6934 12.5113 46.3314 11.4462C45.9693 10.3811 45.3117 9.44133 44.4354 8.73681Z"  />
</svg>
