<svg width="24" height="24" viewBox="0 0 24 24" fill="none" xmlns="http://www.w3.org/2000/svg">
<path d="M21.9493 19.1376C21.8614 18.7152 21.4477 18.4441 21.0252 18.532C20.6028 18.6199 20.3316 19.0337 20.4196 19.4561C20.4703 19.6994 20.4099 19.9488 20.2541 20.1404C20.1639 20.2514 19.9627 20.4375 19.6292 20.4375H4.37081C4.03729 20.4375 3.83608 20.2513 3.74584 20.1404C3.59002 19.9488 3.52971 19.6994 3.58038 19.4561C4.39116 15.5617 7.82612 12.717 11.7929 12.621C11.8616 12.6237 11.9306 12.625 12 12.625C12.0696 12.625 12.1389 12.6236 12.2079 12.621C15.0021 12.688 17.5848 14.1033 19.1488 16.4358C19.389 16.7942 19.8743 16.8899 20.2328 16.6496C20.5911 16.4094 20.6869 15.9241 20.4465 15.5657C19.1646 13.6538 17.3032 12.2636 15.1808 11.565C16.4741 10.5952 17.3125 9.04988 17.3125 7.3125C17.3125 4.3832 14.9293 2 12 2C9.07065 2 6.68749 4.3832 6.68749 7.3125C6.68749 9.05094 7.52686 10.597 8.82159 11.5668C7.63534 11.9574 6.52225 12.5651 5.54803 13.3664C3.76163 14.8358 2.51956 16.8854 2.05069 19.1376C1.90373 19.8433 2.07979 20.5682 2.53362 21.1262C2.98522 21.6815 3.65487 22 4.37081 22H19.6291C20.3451 22 21.0148 21.6815 21.4663 21.1262C21.9202 20.5682 22.0962 19.8433 21.9493 19.1376ZM8.24999 7.3125C8.24999 5.24473 9.93221 3.5625 12 3.5625C14.0678 3.5625 15.75 5.24473 15.75 7.3125C15.75 9.3166 14.1697 10.9586 12.1898 11.0577C12.1266 11.0566 12.0633 11.056 12 11.056C11.9369 11.056 11.8739 11.0566 11.8109 11.0578C9.83065 10.959 8.24999 9.31688 8.24999 7.3125Z" fill="#ACA7AF"/>
</svg>
