<svg width="24" height="24" viewBox="0 0 24 24" fill="none" xmlns="http://www.w3.org/2000/svg">
<path d="M8.17473 22C7.94888 21.9984 7.72802 21.9334 7.53723 21.8125C7.29617 21.666 7.11539 21.4382 7.0275 21.1701C6.9396 20.9021 6.95037 20.6114 7.05786 20.3506L9.71036 13.72H6.82911C6.53035 13.7198 6.23619 13.6464 5.97231 13.5063C5.70843 13.3662 5.48283 13.1637 5.31523 12.9164C5.14762 12.6691 5.04309 12.3845 5.01075 12.0875C4.97842 11.7905 5.01927 11.4901 5.12974 11.2125L8.35411 3.15001C8.48915 2.80986 8.72348 2.51824 9.02658 2.31313C9.32968 2.10801 9.68751 1.99891 10.0535 2.00001H14.2679C14.58 1.99993 14.887 2.07966 15.1596 2.23164C15.4323 2.38362 15.6616 2.6028 15.8256 2.86834C15.9897 3.13388 16.0832 3.43697 16.0971 3.74881C16.1111 4.06065 16.0451 4.37087 15.9054 4.65001L13.7397 8.98188H16.3022C16.6562 8.98187 17.0026 9.08446 17.2995 9.27723C17.5964 9.47 17.8311 9.74469 17.9751 10.0681C18.1191 10.3914 18.1664 10.7496 18.111 11.0992C18.0557 11.4489 17.9003 11.775 17.6635 12.0381L9.05786 21.6006C8.94702 21.7256 8.81107 21.8257 8.6589 21.8945C8.50672 21.9633 8.34174 21.9993 8.17473 22V22ZM10.0535 3.25001C9.93731 3.24961 9.82372 3.28422 9.72751 3.34933C9.6313 3.41444 9.55693 3.50702 9.51411 3.61501L6.28973 11.6775C6.25436 11.7657 6.24115 11.8611 6.25126 11.9556C6.26138 12.05 6.29451 12.1406 6.34775 12.2192C6.40099 12.2979 6.47272 12.3623 6.55665 12.4068C6.64057 12.4512 6.73412 12.4745 6.82911 12.4744H10.6335C10.7356 12.4743 10.8362 12.4993 10.9264 12.5472C11.0167 12.595 11.0938 12.6642 11.1511 12.7488C11.2084 12.8333 11.2441 12.9306 11.2551 13.0322C11.2661 13.1337 11.252 13.2364 11.2141 13.3313L8.32848 20.5431L16.7366 11.2019C16.8115 11.1182 16.8606 11.0147 16.878 10.9038C16.8953 10.7929 16.8802 10.6793 16.8345 10.5768C16.7888 10.4743 16.7144 10.3871 16.6203 10.3259C16.5262 10.2647 16.4164 10.2321 16.3041 10.2319H12.7279C12.6214 10.2318 12.5166 10.2046 12.4237 10.1527C12.3307 10.1008 12.2525 10.026 12.1965 9.93538C12.1405 9.84479 12.1086 9.74139 12.1038 9.635C12.099 9.52862 12.1215 9.42277 12.1691 9.32751L14.7872 4.09063C14.8316 4.00209 14.8525 3.90369 14.8481 3.80476C14.8437 3.70584 14.8141 3.60969 14.762 3.52545C14.71 3.44121 14.6373 3.37168 14.5508 3.32347C14.4643 3.27526 14.3669 3.24997 14.2679 3.25001H10.0535Z" fill="#ACA7AF"/>
</svg>
