<svg width="24" height="24" viewBox="0 0 24 24" fill="none" xmlns="http://www.w3.org/2000/svg">
<path d="M13.8359 14.461C13.676 14.461 13.516 14.4 13.394 14.2779L9.72214 10.606C9.47804 10.3619 9.47804 9.9662 9.72214 9.72214C9.9662 9.47804 10.3619 9.47804 10.606 9.72214L14.2779 13.394C14.522 13.6381 14.522 14.0338 14.2779 14.2779C14.1558 14.4 13.9959 14.461 13.8359 14.461Z" fill="#ACA7AF"/>
<path d="M7.62514 17C7.46237 17 7.30256 16.9364 7.18307 16.8169C7.00631 16.6401 6.95186 16.375 7.04471 16.1429L9.54471 9.89288C9.60823 9.73409 9.73409 9.60823 9.89288 9.54471L16.1429 7.04471C16.3751 6.95186 16.6401 7.00631 16.8169 7.18307C16.9937 7.35987 17.0481 7.62499 16.9553 7.85713L14.4553 14.1071C14.3918 14.2659 14.2659 14.3918 14.1071 14.4553L7.85713 16.9553C7.7819 16.9854 7.70319 17 7.62514 17V17ZM10.6058 10.6058L8.74694 15.2531L13.3942 13.3942L15.2531 8.74694L10.6058 10.6058Z" fill="#ACA7AF"/>
<path d="M12 22C9.32891 22 6.8177 20.9598 4.92891 19.0711C3.04012 17.1823 2 14.6711 2 12C2 9.32891 3.04016 6.8177 4.92891 4.92891C6.81766 3.04012 9.32891 2 12 2C14.6711 2 17.1823 3.04016 19.0711 4.92891C20.9599 6.81766 22 9.32891 22 12C22 14.6711 20.9598 17.1823 19.0711 19.0711C17.1823 20.9599 14.6711 22 12 22V22ZM12 3.25C7.17523 3.25 3.25 7.17523 3.25 12C3.25 16.8248 7.17523 20.75 12 20.75C16.8248 20.75 20.75 16.8248 20.75 12C20.75 7.17523 16.8248 3.25 12 3.25Z" fill="#ACA7AF"/>
</svg>
