<svg width="64" height="40" viewBox="0 0 64 40" fill="none" xmlns="http://www.w3.org/2000/svg">
<path d="M59 0H4C1.23858 0 -1 2.23858 -1 5V35C-1 37.7614 1.23858 40 4 40H59C61.7614 40 64 37.7614 64 35V5C64 2.23858 61.7614 0 59 0Z" fill="#F0E8D8"/>
<path d="M49.2044 20.3172C49.2195 21.6933 48.9615 23.0587 48.4454 24.3344C47.9292 25.6101 47.1651 26.7707 46.1974 27.7491C45.2296 28.7275 44.0774 29.5043 42.8075 30.0344C41.5375 30.5645 40.175 30.8375 38.7988 30.8375C37.4227 30.8375 36.0602 30.5645 34.7902 30.0344C33.5202 29.5043 32.368 28.7275 31.4003 27.7491C30.4325 26.7707 29.6685 25.6101 29.1523 24.3344C28.6361 23.0587 28.3781 21.6933 28.3932 20.3172C28.3781 18.9411 28.6361 17.5757 29.1523 16.3C29.6685 15.0243 30.4325 13.8636 31.4003 12.8852C32.368 11.9068 33.5202 11.1301 34.7902 10.5999C36.0602 10.0698 37.4227 9.79688 38.7988 9.79688C40.175 9.79688 41.5375 10.0698 42.8075 10.5999C44.0774 11.1301 45.2296 11.9068 46.1974 12.8852C47.1651 13.8636 47.9292 15.0243 48.4454 16.3C48.9615 17.5757 49.2195 18.9411 49.2044 20.3172Z" fill="#FF8500"/>
<path d="M35.2747 20.3172C35.2898 21.6933 35.0318 23.0587 34.5157 24.3344C33.9995 25.6101 33.2354 26.7707 32.2677 27.7491C31.2999 28.7275 30.1477 29.5043 28.8778 30.0344C27.6078 30.5645 26.2453 30.8375 24.8691 30.8375C23.493 30.8375 22.1305 30.5645 20.8605 30.0344C19.5906 29.5043 18.4383 28.7275 17.4706 27.7491C16.5028 26.7707 15.7388 25.6101 15.2226 24.3344C14.7064 23.0587 14.4484 21.6933 14.4635 20.3172C14.4484 18.9411 14.7064 17.5757 15.2226 16.3C15.7388 15.0243 16.5028 13.8636 17.4706 12.8852C18.4383 11.9068 19.5906 11.1301 20.8605 10.5999C22.1305 10.0698 23.493 9.79688 24.8691 9.79688C26.2453 9.79688 27.6078 10.0698 28.8778 10.5999C30.1477 11.1301 31.2999 11.9068 32.2677 12.8852C33.2354 13.8636 33.9995 15.0243 34.5157 16.3C35.0318 17.5757 35.2898 18.9411 35.2747 20.3172Z" fill="#E52836"/>
<path d="M28.6139 22.9595L28.7789 22.0233C28.6884 22.047 28.5966 22.0654 28.5039 22.0783C28.1189 22.0783 28.0639 21.8583 28.1189 21.7483L28.4489 19.8208H29.0539L29.2189 18.7745H28.6689L28.7789 18.1133H27.6777C27.6777 18.1133 27.0164 21.747 27.0164 22.187C26.9998 22.3086 27.0104 22.4324 27.0476 22.5493C27.0848 22.6663 27.1476 22.7735 27.2314 22.8631C27.3152 22.9528 27.4179 23.0227 27.5321 23.0677C27.6462 23.1127 27.769 23.1317 27.8914 23.1233C28.1414 23.1228 28.3881 23.0669 28.6139 22.9595Z" fill="white"/>
<path d="M28.9984 21.1977C28.9703 21.4577 29.0009 21.7207 29.0879 21.9673C29.1748 22.2139 29.316 22.4379 29.5009 22.6228C29.6858 22.8077 29.9097 22.9488 30.1563 23.0357C30.4029 23.1227 30.6659 23.1533 30.9259 23.1252C31.3185 23.1504 31.7122 23.0942 32.0821 22.9602L32.3021 21.914C31.9365 22.0749 31.5447 22.168 31.1459 22.189C29.9346 22.189 30.1546 21.314 30.1546 21.314H32.4121C32.4903 20.9879 32.5455 20.6566 32.5771 20.3227C32.5928 20.1091 32.5622 19.8946 32.4875 19.6938C32.4129 19.4931 32.2958 19.3107 32.1443 19.1593C31.9929 19.0078 31.8105 18.8908 31.6098 18.8161C31.409 18.7414 31.1945 18.7108 30.9809 18.7265C29.8246 18.6102 28.9984 19.8215 28.9984 21.1977ZM30.9259 19.6015C31.5309 19.6015 31.4259 20.3177 31.4259 20.3727H30.2146C30.2096 20.3177 30.3196 19.6015 30.9259 19.6015Z" fill="white"/>
<path d="M37.9174 22.9585L38.1374 21.7472C37.8446 21.8948 37.5273 21.988 37.2012 22.0222C36.4299 22.0222 36.0999 21.4172 36.0999 20.7559C36.0999 19.4347 36.7612 18.7184 37.5312 18.7184C37.8866 18.7303 38.2309 18.8449 38.5224 19.0484L38.6874 17.8922C38.2838 17.7301 37.8557 17.6371 37.4212 17.6172C36.1549 17.6172 34.8887 18.7184 34.8887 20.8109C34.8887 22.1859 35.5499 23.1234 36.8712 23.1234C37.2248 23.1061 37.5756 23.0508 37.9174 22.9585Z" fill="white"/>
<path d="M22.5572 18.6101C22.1074 18.6067 21.6604 18.6811 21.2359 18.8301L21.0709 19.7664C21.457 19.6165 21.8681 19.5419 22.2822 19.5464C22.6672 19.5464 22.9984 19.6014 22.9984 19.9314C22.9984 20.1514 22.9434 20.2064 22.9434 20.2064H22.4434C21.5072 20.2064 20.4609 20.5914 20.4609 21.8576C20.4609 22.8489 21.1222 23.0689 21.5072 23.0689C21.9434 23.0611 22.359 22.8814 22.6634 22.5689L22.6084 23.0088H23.5997L24.0397 19.9801C24.0511 19.7874 24.0197 19.5944 23.9476 19.4153C23.8755 19.2362 23.7645 19.0753 23.6227 18.9442C23.4809 18.8132 23.3117 18.7152 23.1275 18.6575C22.9432 18.5997 22.7484 18.5835 22.5572 18.6101ZM22.7772 21.0876C22.7772 21.2526 22.6672 22.1339 22.0059 22.1339C21.9478 22.1352 21.8899 22.1248 21.8359 22.1031C21.7819 22.0815 21.7329 22.0492 21.6918 22.008C21.6506 21.9669 21.6183 21.9178 21.5966 21.8638C21.575 21.8098 21.5646 21.752 21.5659 21.6939C21.5659 21.4189 21.7309 21.0326 22.5572 21.0326C22.6278 21.0604 22.7018 21.0789 22.7772 21.0876Z" fill="white"/>
<path d="M25.09 23.0694C25.2961 23.105 25.5075 23.0945 25.709 23.0384C25.9104 22.9823 26.0969 22.8822 26.255 22.7452C26.413 22.6082 26.5386 22.4379 26.6227 22.2464C26.7068 22.0549 26.7473 21.8472 26.7413 21.6381C26.7413 20.2631 25.42 20.5369 25.42 19.9869C25.42 19.7119 25.64 19.6019 26.025 19.6019C26.19 19.6019 26.7963 19.6569 26.7963 19.6569L26.9613 18.6656C26.6186 18.5851 26.267 18.5481 25.915 18.5556C25.0888 18.5556 24.2638 18.8856 24.2638 19.9869C24.2638 21.2531 25.6388 21.1431 25.6388 21.6381C25.6388 21.9681 25.2538 22.0231 24.9775 22.0231C24.641 22.0148 24.3074 21.9592 23.9863 21.8581L23.8213 22.8494C23.8788 22.9594 24.1538 23.0694 25.09 23.0694Z" fill="white"/>
<path d="M47.0582 17.7266L46.8382 19.2128C46.7092 19.0562 46.5502 18.9269 46.3705 18.8324C46.1909 18.738 45.9942 18.6803 45.792 18.6628C44.8007 18.6628 43.917 19.8741 43.917 21.3053C43.917 22.1803 44.357 23.1228 45.292 23.1228C45.4868 23.1225 45.6797 23.0834 45.8593 23.0079C46.0389 22.9323 46.2017 22.8218 46.3383 22.6828L46.2832 23.0678H47.3845L48.2107 17.7828L47.0582 17.7266ZM46.5582 20.6441C46.5582 21.2503 46.2832 22.0191 45.6832 22.0191C45.2982 22.0191 45.0783 21.6891 45.0783 21.1441C45.0783 20.2691 45.4632 19.7128 45.9532 19.7128C46.342 19.7091 46.562 19.9841 46.562 20.6441H46.5582Z" fill="white"/>
<path d="M16.556 23.0116L17.2173 19.0478L17.3273 23.0116H18.0985L19.5298 19.0478L18.9235 23.0116H20.0798L20.9548 17.7266H19.1435L18.0423 20.9766L17.9873 17.7266H16.3848L15.5098 23.0116H16.556Z" fill="white"/>
<path d="M33.6234 23.0137C33.9534 21.1962 34.0084 19.71 34.7796 19.985C34.8422 19.5457 34.972 19.1186 35.1646 18.7188H34.9446C34.4446 18.7188 34.0696 19.38 34.0696 19.38L34.1796 18.775H33.1334L32.4121 23.0687H33.6234V23.0137Z" fill="white"/>
<path d="M40.4507 18.6096C40.0009 18.6062 39.5539 18.6807 39.1295 18.8297L38.9645 19.7659C39.3505 19.6161 39.7617 19.5414 40.1757 19.5459C40.5607 19.5459 40.892 19.6009 40.892 19.9309C40.892 20.1509 40.837 20.2059 40.837 20.2059H40.337C39.4007 20.2059 38.3545 20.5909 38.3545 21.8572C38.3545 22.8484 39.0157 23.0684 39.4008 23.0684C39.837 23.0607 40.2525 22.881 40.557 22.5684L40.502 23.0084H41.4932L41.9333 19.9797C41.9485 19.7859 41.9196 19.5913 41.8488 19.4103C41.778 19.2294 41.667 19.0669 41.5243 18.935C41.3816 18.8031 41.2109 18.7053 41.0249 18.649C40.8389 18.5926 40.6427 18.5792 40.4507 18.6096ZM40.7257 21.0872C40.7257 21.2522 40.6157 22.1334 39.9545 22.1334C39.8963 22.1348 39.8385 22.1243 39.7845 22.1027C39.7305 22.0811 39.6814 22.0487 39.6403 22.0076C39.5992 21.9664 39.5668 21.9174 39.5452 21.8634C39.5235 21.8094 39.5131 21.7516 39.5145 21.6934C39.5145 21.4184 39.6795 21.0321 40.5058 21.0321C40.6708 21.0871 40.6707 21.0872 40.7257 21.0872Z" fill="white"/>
<path d="M42.8732 23.0137C43.2032 21.1962 43.2583 19.71 44.0295 19.985C44.0921 19.5457 44.2219 19.1186 44.4145 18.7188H44.1945C43.6945 18.7188 43.3195 19.38 43.3195 19.38L43.4295 18.775H42.3832L41.667 23.07H42.8782L42.8732 23.0137Z" fill="white"/>
</svg>
