<svg width="24" height="24" viewBox="0 0 24 24" fill="none" xmlns="http://www.w3.org/2000/svg">
<path fill-rule="evenodd" clip-rule="evenodd" d="M15 2.75003C16.9197 2.75003 17.7016 2.75929 18.3133 2.95804C19.6072 3.37844 20.6216 4.39285 21.042 5.68671C21.2407 6.29842 21.25 7.08038 21.25 9.00003V9.50003C21.25 9.91425 21.5858 10.25 22 10.25C22.4142 10.25 22.75 9.91425 22.75 9.50003V9.00003L22.75 8.8382C22.7503 7.13192 22.7504 6.09071 22.4686 5.22319C21.8998 3.47267 20.5274 2.10024 18.7768 1.53146C17.9093 1.24958 16.8681 1.24975 15.1618 1.25002L15 1.25003H10H9.96644C8.59472 1.25003 7.51929 1.25002 6.65494 1.32064C5.77479 1.39256 5.04768 1.54141 4.38955 1.87675C3.30762 2.42802 2.42798 3.30766 1.87671 4.38959C1.54138 5.04772 1.39252 5.77483 1.32061 6.65497C1.24999 7.51932 1.25 8.59475 1.25 9.96647V10V14V14.0336C1.25 15.4053 1.24999 16.4807 1.32061 17.3451C1.39252 18.2252 1.54138 18.9523 1.87671 19.6105C2.42798 20.6924 3.30762 21.572 4.38955 22.1233C5.04768 22.4587 5.77479 22.6075 6.65494 22.6794C7.51925 22.75 8.59464 22.75 9.96627 22.75H9.96632H9.96637H9.96642H10H15L15.1618 22.75C16.8681 22.7503 17.9093 22.7505 18.7768 22.4686C20.5274 21.8998 21.8998 20.5274 22.4686 18.7769C22.7504 17.9094 22.7503 16.8681 22.75 15.1619L22.75 15V14.5C22.75 14.0858 22.4142 13.75 22 13.75C21.5858 13.75 21.25 14.0858 21.25 14.5V15C21.25 16.9197 21.2407 17.7016 21.042 18.3134C20.6216 19.6072 19.6072 20.6216 18.3133 21.042C17.7016 21.2408 16.9197 21.25 15 21.25H10C8.58749 21.25 7.57322 21.2494 6.77708 21.1844C5.9897 21.1201 5.48197 20.9964 5.07054 20.7868C4.27085 20.3793 3.62068 19.7292 3.21322 18.9295C3.00359 18.5181 2.87996 18.0103 2.81563 17.2229C2.75058 16.4268 2.75 15.4125 2.75 14V10C2.75 8.58753 2.75058 7.57325 2.81563 6.77712C2.87996 5.98974 3.00359 5.482 3.21322 5.07057C3.62068 4.27088 4.27085 3.62072 5.07054 3.21326C5.48197 3.00362 5.9897 2.87999 6.77708 2.81566C7.57322 2.75062 8.58749 2.75003 10 2.75003H15ZM8.74988 10C8.74988 9.58582 8.41409 9.25003 7.99988 9.25003C7.58566 9.25003 7.24988 9.58582 7.24988 10V16C7.24988 16.4142 7.58566 16.75 7.99988 16.75C8.41409 16.75 8.74988 16.4142 8.74988 16V10ZM11.9999 7.25003C12.4141 7.25003 12.7499 7.58582 12.7499 8.00003V16C12.7499 16.4142 12.4141 16.75 11.9999 16.75C11.5857 16.75 11.2499 16.4142 11.2499 16V8.00003C11.2499 7.58582 11.5857 7.25003 11.9999 7.25003ZM16.7499 12C16.7499 11.5858 16.4141 11.25 15.9999 11.25C15.5857 11.25 15.2499 11.5858 15.2499 12V16C15.2499 16.4142 15.5857 16.75 15.9999 16.75C16.4141 16.75 16.7499 16.4142 16.7499 16V12Z" fill="#716B76"/>
</svg>
