<svg width="89" height="24" viewBox="0 0 89 24" fill="none" xmlns="http://www.w3.org/2000/svg">
<path d="M60.099 0H53.242C52.8387 0 52.4353 0.403353 52.2336 0.806707L49.4102 18.5543C49.4102 18.9576 49.6118 19.1593 50.0152 19.1593H53.6454C54.0487 19.1593 54.2504 18.9576 54.2504 18.5543L55.0571 13.5123C55.0571 13.109 55.4605 12.7056 56.0655 12.7056H58.2839C62.9225 12.7056 65.5443 10.4872 66.1493 6.05031C66.5527 4.23521 66.1493 2.6218 65.3426 1.61342C64.1326 0.605033 62.3175 0 60.099 0ZM60.9057 6.65534C60.5024 9.07546 58.6873 9.07546 56.8722 9.07546H55.6621L56.4688 4.43689C56.4688 4.23522 56.6705 4.03354 57.0739 4.03354H57.4772C58.6873 4.03354 59.8973 4.03354 60.5024 4.84024C60.9057 5.04192 60.9057 5.64695 60.9057 6.65534Z" fill="#139AD6"/>
<path d="M10.6889 0H3.83186C3.4285 0 3.02515 0.403353 2.82347 0.806707L0 18.5543C0 18.9576 0.201679 19.1593 0.605033 19.1593H3.83186C4.23521 19.1593 4.63856 18.7559 4.84024 18.3526L5.64695 13.5123C5.64695 13.109 6.0503 12.7056 6.65533 12.7056H8.87378C13.5123 12.7056 16.1341 10.4872 16.7392 6.05031C17.1425 4.23521 16.7392 2.6218 15.9325 1.61342C14.7224 0.605033 13.109 0 10.6889 0ZM11.4956 6.65534C11.0922 9.07546 9.27713 9.07546 7.46204 9.07546H6.45366L7.26036 4.43689C7.26036 4.23522 7.46204 4.03354 7.86539 4.03354H8.26875C9.47881 4.03354 10.6889 4.03354 11.2939 4.84024C11.4956 5.04192 11.6973 5.64695 11.4956 6.65534Z" fill="#263B80"/>
<path d="M31.4621 6.45414H28.2353C28.0336 6.45414 27.6302 6.65581 27.6302 6.85749L27.4286 7.86587L27.2269 7.46252C26.4202 6.45414 25.0084 6.05078 23.395 6.05078C19.7648 6.05078 16.538 8.87426 15.933 12.7061C15.5296 14.7229 16.1347 16.538 17.143 17.748C18.1514 18.9581 19.5632 19.3615 21.3783 19.3615C24.4034 19.3615 26.0168 17.5464 26.0168 17.5464L25.8152 18.5547C25.8152 18.9581 26.0168 19.1598 26.4202 19.1598H29.4453C29.8487 19.1598 30.252 18.7564 30.4537 18.3531L32.2688 7.05917C32.0671 6.85749 31.6638 6.45414 31.4621 6.45414ZM26.8235 12.9078C26.4202 14.7229 25.0084 16.1346 22.9917 16.1346C21.9833 16.1346 21.1766 15.7313 20.7732 15.3279C20.3699 14.7229 20.1682 13.9162 20.1682 12.9078C20.3699 11.0927 21.9833 9.68097 23.7984 9.68097C24.8068 9.68097 25.4118 10.0843 26.0168 10.4877C26.6219 11.0927 26.8235 12.1011 26.8235 12.9078Z" fill="#263B80"/>
<path d="M80.6711 6.45414H77.4442C77.2426 6.45414 76.8392 6.65581 76.8392 6.85749L76.6375 7.86587L76.4359 7.46252C75.6291 6.45414 74.2174 6.05078 72.604 6.05078C68.9738 6.05078 65.747 8.87426 65.142 12.7061C64.7386 14.7229 65.3436 16.538 66.352 17.748C67.3604 18.9581 68.7721 19.3615 70.5872 19.3615C73.6124 19.3615 75.2258 17.5464 75.2258 17.5464L75.0241 18.5547C75.0241 18.9581 75.2258 19.1598 75.6292 19.1598H78.6543C79.0577 19.1598 79.461 18.7564 79.6627 18.3531L81.4778 7.05917C81.2761 6.85749 81.0744 6.45414 80.6711 6.45414ZM76.0325 12.9078C75.6291 14.7229 74.2174 16.1346 72.2007 16.1346C71.1923 16.1346 70.3856 15.7313 69.9822 15.3279C69.5788 14.7229 69.3772 13.9162 69.3772 12.9078C69.5789 11.0927 71.1923 9.68097 73.0074 9.68097C74.0157 9.68097 74.6208 10.0843 75.2258 10.4877C76.0325 11.0927 76.2342 12.1011 76.0325 12.9078Z" fill="#139AD6"/>
<path d="M49.0076 6.45312H45.5791C45.1758 6.45312 44.9741 6.6548 44.7724 6.85648L40.3355 13.7135L38.3188 7.25983C38.1171 6.85648 37.9154 6.6548 37.3104 6.6548H34.0835C33.6802 6.6548 33.4785 7.05816 33.4785 7.46151L37.1087 18.1504L33.6802 22.9906C33.4785 23.394 33.6802 23.999 34.0835 23.999H37.3104C37.7137 23.999 37.9154 23.7973 38.1171 23.5956L49.2093 7.66319C49.8143 7.05816 49.411 6.45312 49.0076 6.45312Z" fill="#263B80"/>
<path d="M84.5012 0.607474L81.6777 18.7584C81.6777 19.1617 81.8794 19.3634 82.2828 19.3634H85.1062C85.5096 19.3634 85.9129 18.9601 86.1146 18.5567L88.9381 0.809147C88.9381 0.405794 88.7364 0.204118 88.3331 0.204118H85.1062C84.9046 0.00244174 84.7029 0.20412 84.5012 0.607474Z" fill="#139AD6"/>
</svg>
