<svg width="22" height="22" viewBox="0 0 22 22" fill="none" xmlns="http://www.w3.org/2000/svg">
<path d="M9.43149 0.72156C10.2731 -0.202216 11.7269 -0.202216 12.5685 0.72156C13.1268 1.33437 13.9909 1.5659 14.7809 1.31436C15.9716 0.935167 17.2306 1.66203 17.4976 2.88286C17.6747 3.69274 18.3073 4.32529 19.1171 4.50241C20.338 4.76941 21.0648 6.02837 20.6856 7.21915C20.4341 8.00908 20.6656 8.87316 21.2784 9.43149C22.2022 10.2731 22.2022 11.7269 21.2784 12.5685C20.6656 13.1268 20.4341 13.9909 20.6856 14.7809C21.0648 15.9716 20.338 17.2306 19.1171 17.4976C18.3073 17.6747 17.6747 18.3073 17.4976 19.1171C17.2306 20.338 15.9716 21.0648 14.7809 20.6856C13.9909 20.4341 13.1268 20.6656 12.5685 21.2784C11.7269 22.2022 10.2731 22.2022 9.43149 21.2784C8.87316 20.6656 8.00908 20.4341 7.21915 20.6856C6.02837 21.0648 4.76941 20.338 4.50241 19.1171C4.32529 18.3073 3.69274 17.6747 2.88286 17.4976C1.66203 17.2306 0.935167 15.9716 1.31436 14.7809C1.5659 13.9909 1.33437 13.1268 0.72156 12.5685C-0.202216 11.7269 -0.202216 10.2731 0.72156 9.43149C1.33437 8.87316 1.5659 8.00908 1.31436 7.21915C0.935167 6.02837 1.66202 4.76941 2.88286 4.50241C3.69274 4.32529 4.32529 3.69274 4.50241 2.88286C4.76941 1.66203 6.02837 0.935167 7.21915 1.31436C8.00908 1.5659 8.87316 1.33437 9.43149 0.72156Z" fill="#7E20C9"/>
</svg>
