<svg width="65" height="40" viewBox="0 0 65 40" fill="none" xmlns="http://www.w3.org/2000/svg">
<mask id="mask0_2264_45408" style="mask-type:alpha" maskUnits="userSpaceOnUse" x="0" y="0" width="65" height="40">
<path d="M60 0H5C2.23858 0 0 2.23858 0 5V35C0 37.7614 2.23858 40 5 40H60C62.7614 40 65 37.7614 65 35V5C65 2.23858 62.7614 0 60 0Z" fill="#E2E2E2"/>
</mask>
<g mask="url(#mask0_2264_45408)">
<path d="M60 0H5C2.23858 0 0 2.23858 0 5V35C0 37.7614 2.23858 40 5 40H60C62.7614 40 65 37.7614 65 35V5C65 2.23858 62.7614 0 60 0Z" fill="white"/>
<path d="M26.4863 26.1467L28.9376 12.3555H32.7688L30.3938 26.1467H26.4863Z" fill="#293688"/>
<path d="M26.4863 26.1467L29.6276 12.3555H32.7688L30.3938 26.1467H26.4863Z" fill="#293688"/>
<path d="M44.2616 12.5079C43.1346 12.0873 41.9393 11.8796 40.7366 11.8954C36.9053 11.8954 34.1478 13.8104 34.1478 16.5691C34.1478 18.6379 36.0628 19.7104 37.5953 20.4004C39.1278 21.0904 39.5878 21.5491 39.5878 22.1629C39.5878 23.0829 38.3616 23.5379 37.2891 23.5379C36.0209 23.5658 34.7631 23.3037 33.6116 22.7716L33.0753 22.5416L32.5391 25.6866C33.9372 26.2019 35.4166 26.4614 36.9066 26.4529C40.9678 26.4529 43.6491 24.5379 43.6491 21.6254C43.6491 20.0166 42.6491 18.7904 40.3541 17.7941C38.9791 17.1041 38.1316 16.7216 38.1316 16.0316C38.1316 15.4191 38.8216 14.8053 40.3541 14.8053C41.3515 14.7754 42.344 14.9582 43.2653 15.3416L43.6478 15.4954L44.2603 12.5066L44.2616 12.5079Z" fill="#293688"/>
<path d="M44.2616 12.5079C43.1346 12.0873 41.9393 11.8796 40.7366 11.8954C36.9053 11.8954 34.8366 13.8104 34.8366 16.5691C34.8305 17.4178 35.0945 18.2464 35.5904 18.9351C36.0864 19.6239 36.7885 20.137 37.5953 20.4004C39.1278 21.0904 39.5878 21.5491 39.5878 22.1629C39.5878 23.0829 38.3616 23.5379 37.2891 23.5379C36.0209 23.5658 34.7631 23.3037 33.6116 22.7716L33.0753 22.5416L32.5391 25.6866C33.9372 26.2019 35.4166 26.4614 36.9066 26.4529C40.9678 26.4529 43.6491 24.5379 43.6491 21.6254C43.6491 20.0166 42.6491 18.7904 40.3541 17.7941C38.9791 17.1041 38.1316 16.7216 38.1316 16.0316C38.1316 15.4191 38.8216 14.8053 40.3541 14.8053C41.3515 14.7754 42.344 14.9582 43.2653 15.3416L43.6478 15.4954L44.2603 12.5066L44.2616 12.5079Z" fill="#293688"/>
<path d="M50.8499 12.3555C49.9299 12.3555 49.2412 12.4317 48.8574 13.3555L43.1074 26.1505H47.2449L48.0112 23.8517H52.9149L53.3749 26.1505H57.0524L53.8374 12.3555H50.8499ZM49.0874 21.5492C49.3174 20.8592 50.6199 17.488 50.6199 17.488C50.6199 17.488 50.9262 16.6455 51.1562 16.113L51.3862 17.4155C51.3862 17.4155 52.1524 20.863 52.3049 21.6292H49.0874V21.5492Z" fill="#293688"/>
<path d="M51.7708 12.3555C50.8508 12.3555 50.162 12.4317 49.7783 13.3555L43.1133 26.1467H47.2508L48.017 23.848H52.9208L53.3808 26.1467H57.0583L53.8395 12.3555H51.7708ZM49.0895 21.5492C49.3958 20.783 50.6221 17.488 50.6221 17.488C50.6221 17.488 50.9283 16.6455 51.1583 16.113L51.3883 17.4155C51.3883 17.4155 52.1546 20.863 52.3083 21.6292H49.0908L49.0895 21.5492Z" fill="#293688"/>
<path d="M19.4416 22.0111L19.0591 20.0186C18.0953 17.3987 16.1803 15.2378 13.6953 13.9661L17.1428 26.2248H21.2803L27.4828 12.4336H23.3453L19.4416 22.0111Z" fill="#293688"/>
<path d="M8.78711 12.3555L9.47711 12.5092C14.3809 13.658 17.7521 16.5705 19.0546 20.018L17.6796 13.5055C17.4496 12.5855 16.7596 12.3567 15.9171 12.3567L8.78711 12.3555Z" fill="#293688"/>
<path d="M81.25 0H-16.25V6.25H81.25V0Z" fill="#293688"/>
<path d="M81.25 33.75H-16.25V40H81.25V33.75Z" fill="#F7981D"/>
</g>
</svg>
